<mxfile host="app.diagrams.net" modified="2022-10-01T01:02:24.318Z" agent="5.0 (Windows NT 10.0; Win64; x64) AppleWebKit/537.36 (KHTML, like Gecko) Chrome/105.0.0.0 Safari/537.36" etag="stxuJpMxu1B2TXzmD2AW" version="20.4.0" type="github">
  <diagram id="h_LLXvbByNgU6Kgh0kJg" name="Page-1">
    <mxGraphModel dx="868" dy="482" grid="1" gridSize="10" guides="1" tooltips="1" connect="1" arrows="1" fold="1" page="1" pageScale="1" pageWidth="2336" pageHeight="1654" math="0" shadow="0">
      <root>
        <mxCell id="0" />
        <mxCell id="1" parent="0" />
        <mxCell id="4FqnQoI1YnKQfAXv2yn1-2" value="" style="rounded=1;whiteSpace=wrap;html=1;strokeWidth=2;" vertex="1" parent="1">
          <mxGeometry x="230" y="130" width="520" height="190" as="geometry" />
        </mxCell>
        <mxCell id="4FqnQoI1YnKQfAXv2yn1-8" style="edgeStyle=orthogonalEdgeStyle;rounded=0;orthogonalLoop=1;jettySize=auto;html=1;entryX=0;entryY=0.5;entryDx=0;entryDy=0;strokeWidth=2;" edge="1" parent="1" source="4FqnQoI1YnKQfAXv2yn1-3" target="4FqnQoI1YnKQfAXv2yn1-4">
          <mxGeometry relative="1" as="geometry" />
        </mxCell>
        <mxCell id="4FqnQoI1YnKQfAXv2yn1-3" value="&lt;b&gt;C1&lt;/b&gt;" style="ellipse;whiteSpace=wrap;html=1;aspect=fixed;fillColor=#a0522d;strokeColor=#0F0F0F;fontColor=#ffffff;strokeWidth=2;" vertex="1" parent="1">
          <mxGeometry x="270" y="205" width="55" height="55" as="geometry" />
        </mxCell>
        <mxCell id="4FqnQoI1YnKQfAXv2yn1-9" style="edgeStyle=orthogonalEdgeStyle;rounded=0;orthogonalLoop=1;jettySize=auto;html=1;entryX=0;entryY=0.5;entryDx=0;entryDy=0;strokeWidth=2;" edge="1" parent="1" source="4FqnQoI1YnKQfAXv2yn1-4" target="4FqnQoI1YnKQfAXv2yn1-5">
          <mxGeometry relative="1" as="geometry" />
        </mxCell>
        <mxCell id="4FqnQoI1YnKQfAXv2yn1-4" value="&lt;font color=&quot;#ffffff&quot;&gt;&lt;b&gt;C2&lt;/b&gt;&lt;/font&gt;" style="ellipse;whiteSpace=wrap;html=1;aspect=fixed;fillColor=#fa6800;fontColor=#000000;strokeColor=#151C1C;strokeWidth=2;" vertex="1" parent="1">
          <mxGeometry x="400" y="205" width="55" height="55" as="geometry" />
        </mxCell>
        <mxCell id="4FqnQoI1YnKQfAXv2yn1-10" style="edgeStyle=orthogonalEdgeStyle;rounded=0;orthogonalLoop=1;jettySize=auto;html=1;entryX=0;entryY=0.5;entryDx=0;entryDy=0;strokeWidth=2;" edge="1" parent="1" source="4FqnQoI1YnKQfAXv2yn1-5" target="4FqnQoI1YnKQfAXv2yn1-6">
          <mxGeometry relative="1" as="geometry" />
        </mxCell>
        <mxCell id="4FqnQoI1YnKQfAXv2yn1-5" value="&lt;b&gt;C3&lt;/b&gt;" style="ellipse;whiteSpace=wrap;html=1;aspect=fixed;fillColor=#e51400;fontColor=#ffffff;strokeColor=#000000;strokeWidth=2;" vertex="1" parent="1">
          <mxGeometry x="530" y="205" width="55" height="55" as="geometry" />
        </mxCell>
        <mxCell id="4FqnQoI1YnKQfAXv2yn1-6" value="&lt;b&gt;C4&lt;/b&gt;" style="ellipse;whiteSpace=wrap;html=1;aspect=fixed;fillColor=#1ba1e2;strokeColor=#0F0F0F;fontColor=#ffffff;strokeWidth=2;" vertex="1" parent="1">
          <mxGeometry x="660" y="205" width="55" height="55" as="geometry" />
        </mxCell>
        <mxCell id="4FqnQoI1YnKQfAXv2yn1-7" value="" style="shape=image;html=1;verticalAlign=top;verticalLabelPosition=bottom;labelBackgroundColor=#ffffff;imageAspect=0;aspect=fixed;image=https://cdn1.iconfinder.com/data/icons/DarkGlass_Reworked/128x128/actions/fileclose.png;strokeColor=#0F0F0F;strokeWidth=2;" vertex="1" parent="1">
          <mxGeometry x="540.5" y="270" width="34" height="34" as="geometry" />
        </mxCell>
        <mxCell id="4FqnQoI1YnKQfAXv2yn1-11" value="&lt;b&gt;&lt;font style=&quot;font-size: 16px;&quot;&gt;New&lt;/font&gt;&lt;/b&gt;" style="text;html=1;strokeColor=none;fillColor=none;align=center;verticalAlign=middle;whiteSpace=wrap;rounded=0;strokeWidth=2;" vertex="1" parent="1">
          <mxGeometry x="657.5" y="270" width="60" height="30" as="geometry" />
        </mxCell>
        <mxCell id="4FqnQoI1YnKQfAXv2yn1-13" value="" style="endArrow=none;dashed=1;html=1;dashPattern=1 3;strokeWidth=3;rounded=0;fontSize=16;fontColor=#FFFFFF;exitX=0.5;exitY=0;exitDx=0;exitDy=0;entryX=0.5;entryY=0;entryDx=0;entryDy=0;" edge="1" parent="1" source="4FqnQoI1YnKQfAXv2yn1-4" target="4FqnQoI1YnKQfAXv2yn1-6">
          <mxGeometry width="50" height="50" relative="1" as="geometry">
            <mxPoint x="410" y="210" as="sourcePoint" />
            <mxPoint x="460" y="160" as="targetPoint" />
            <Array as="points">
              <mxPoint x="428" y="170" />
              <mxPoint x="550" y="170" />
              <mxPoint x="580" y="170" />
              <mxPoint x="688" y="170" />
            </Array>
          </mxGeometry>
        </mxCell>
        <mxCell id="4FqnQoI1YnKQfAXv2yn1-17" value="&lt;b&gt;C2=C4&lt;/b&gt;" style="text;html=1;strokeColor=none;fillColor=none;align=center;verticalAlign=middle;whiteSpace=wrap;rounded=0;strokeWidth=2;fontSize=16;fontColor=#151C1C;" vertex="1" parent="1">
          <mxGeometry x="527.5" y="140" width="60" height="30" as="geometry" />
        </mxCell>
      </root>
    </mxGraphModel>
  </diagram>
</mxfile>
